<?xml version="1.0" encoding="utf-8"?>
<!-- Generator: Adobe Illustrator 16.0.0, SVG Export Plug-In . SVG Version: 6.00 Build 0)  -->
<!DOCTYPE svg PUBLIC "-//W3C//DTD SVG 1.1//EN" "http://www.w3.org/Graphics/SVG/1.1/DTD/svg11.dtd">
<svg version="1.1" xmlns="http://www.w3.org/2000/svg" xmlns:xlink="http://www.w3.org/1999/xlink" x="0px" y="0px" width="150px"
	 height="150px" viewBox="0 0 150 150" enable-background="new 0 0 150 150" xml:space="preserve">
<g id="Calque_1" display="none">
</g>
<g id="Calque_2">
	<rect fill="#FFFFFF" width="150" height="150"/>
	<g>
		<path fill="#F7931E" d="M147.363,43.113c0.879,1.199,1.863,2.376,2.637,3.575V42.85c-0.773-0.027-1.582-0.049-2.379-0.095
			C147.529,42.874,147.454,42.994,147.363,43.113z"/>
		<path fill="#F7931E" d="M117.542,76.812c-1.366,0.212-2.759,0.27-4.119,0.509c-3.306,0.584-6.61,1.17-9.914,1.759
			c6.627,8.938,12.173,18.468,15.167,29.322c0.83,3.01,1.406,6.003,1.695,8.975c2.354-0.339,4.713-0.65,7.078-0.932
			c-0.013-0.284,0.004-0.482-0.032-0.67c-2.42-12.869-5.288-25.633-8.854-38.237C118.403,76.976,118.195,76.71,117.542,76.812z"/>
		<path fill="#F7931E" d="M66.18,131.399c4.152-10.97,6.503-22.474,7.349-34.427c0.271-3.828,0.363-7.632,0.292-11.416
			c-1.03,0.318-2.051,0.636-3.063,0.955C70.698,91.686,70.36,96.85,69.722,102c-1.343,10.819-3.741,21.282-7.99,31.119
			C63.205,132.523,64.688,131.952,66.18,131.399z"/>
		<path fill="#F7931E" d="M150,118.623c-3.865,0.06-8.016,0.211-12.037,0.495c-2.024,0.143-4.025,0.436-6.14,0.648
			c1.593,10.066,2.889,20.183,3.736,30.234H150V118.623z"/>
		<path fill="#F7931E" d="M59.373,138.137c-1.33,2.606-2.807,5.201-4.446,7.702c-0.926,1.413-1.927,2.614-2.956,4.161h5.113
			c2.804-4.639,5.221-9.274,7.277-14.055C62.688,136.666,61.023,137.369,59.373,138.137z"/>
		<path fill="#F7931E" d="M120.576,120.893c0.127,6.442-1.165,12.82-4.222,19.02c-1.82,3.692-4.109,6.995-6.759,10.088h22.349
			c-0.937-10.051-2.372-19.915-3.857-29.811C126.86,120.126,124.104,120.383,120.576,120.893z"/>
		<path fill="#F7931E" d="M126.043,75.987c-1.358,0.149-2.697,0.304-4.143,0.467c3.857,13.125,6.741,26.311,9.154,39.716
			c6.323-0.659,12.76-1.016,18.945-1.078v-40.28C142.011,74.793,134.025,75.11,126.043,75.987z"/>
		<path fill="#F7931E" d="M40.431,131.297c-2.295-10.235-3.031-20.676-3.29-31.245c-0.411,0.188-0.747,0.315-1.059,0.487
			c-2.595,1.442-5.192,2.881-7.778,4.342c-3.851,2.175-7.499,4.66-11.023,7.326c-0.616,0.466-0.934,1.012-0.87,1.849
			c0.146,1.916,0.148,3.842,0.279,5.759c0.713,10.403,2.949,20.439,6.813,30.079C29.552,144.037,35.222,137.86,40.431,131.297z"/>
		<path fill="#F7931E" d="M16.236,108.152c0.379-0.223,0.493-0.279,0.597-0.353c6.198-4.42,12.705-8.316,19.637-11.48
			c0.612-0.279,0.766-0.662,0.765-1.305c-0.033-9.244,0.834-18.393,2.979-27.401c0.332-1.395,0.688-2.782,1.067-4.304
			c-0.294,0.093-0.448,0.127-0.589,0.188c-6.028,2.597-11.71,5.794-16.984,9.717c-0.76,0.564-1.203,1.209-1.495,2.098
			c-2.737,8.312-4.532,16.821-5.412,25.522C16.563,103.187,16.434,105.55,16.236,108.152z"/>
		<path fill="#F7931E" d="M64.464,88.577c-7.777,2.658-15.424,5.647-22.859,9.177c-0.653,0.31-0.932,0.633-0.885,1.389
			c0.161,2.569,0.172,5.148,0.373,7.713c0.541,6.898,0.949,13.817,2.289,20.609c3.174-4.238,6.161-8.634,8.932-13.211
			C57.267,106.069,61.404,97.542,64.464,88.577z"/>
		<path fill="#F7931E" d="M101.012,75.806c5.469-1.006,10.98-1.835,16.548-2.491c-1.003-3.173-1.863-6.182-2.903-9.129
			c-2.262-6.407-4.617-12.783-6.927-19.174c-0.192-0.53-0.439-0.771-1.085-0.677c-9.112,1.322-18.13,3.118-27.067,5.334
			c-0.745,0.186-0.938,0.507-0.896,1.213c0.024,0.423,0.049,0.846,0.074,1.27C86.807,59.411,94.3,67.224,101.012,75.806z"/>
		<path fill="#F7931E" d="M24.706,60.464c0.086-0.189,0.13-0.396,0.271-0.842c-3.613,2.529-13.656,16.591-13.604,18.938
			c0.193-0.178,0.355-0.337,0.527-0.484c2.329-1.994,4.673-3.971,6.979-5.992c0.468-0.411,0.91-0.928,1.174-1.486
			C21.636,67.236,23.164,63.847,24.706,60.464z"/>
		<path fill="#F7931E" d="M61.628,31.519c0.233-0.011,0.333,0.007,0.417-0.023c4.503-1.592,8.984-3.249,13.518-4.746
			c1.236-0.407,1.886-0.938,2.216-2.232c0.548-2.151,1.354-4.237,2.053-6.353C76.503,18.542,65.688,26.456,61.628,31.519z"/>
		<path fill="#F7931E" d="M140.867,42.325c-0.843,0.089-1.708-0.047-2.562-0.04c-4.479,0.041-8.96,0.047-13.438,0.168
			c-2.078,0.056-4.149,0.356-6.226,0.524c-1.562,0.126-3.13,0.188-4.69,0.335c-0.901,0.085-1.792,0.282-2.747,0.438
			c0.529,1.495,0.954,2.941,1.544,4.315c3.292,7.661,5.483,15.683,7.816,23.657c0.223,0.76,0.41,1.043,1.277,0.945
			c9.372-1.063,18.879-1.492,28.157-1.489V53.843c-2.062-3.349-4.272-6.668-6.377-10.032
			C142.937,42.711,142.177,42.188,140.867,42.325z"/>
		<path fill="#F7931E" d="M89.859,16.505c-1.52-0.823-3.022-0.892-4.472,0.388c-2.466,2.177-3.218,5.106-3.934,8.158
			c4.903-0.959,9.625-1.883,14.44-2.825c-1.06-1.261-1.976-2.528-3.079-3.603C91.956,17.785,90.921,17.079,89.859,16.505z"/>
		<path fill="#F7931E" d="M80.283,29.93c-0.425,3.738-0.906,7.469-1.309,11.209c-0.174,1.599-0.2,3.214-0.289,4.742
			c9.141-1.762,18.188-3.506,27.331-5.269c-2.107-4.835-4.462-9.546-7.175-14.081c-0.411-0.689-0.854-0.848-1.598-0.703
			c-5.334,1.042-10.674,2.062-16.017,3.067C80.604,29.013,80.354,29.313,80.283,29.93z"/>
		<path fill="#F7931E" d="M43.926,40.154c0.197,0.052,0.345,0.026,0.471-0.042c2.631-1.44,5.275-2.858,7.88-4.348
			c0.863-0.494,1.718-1.083,2.4-1.795c1.154-1.208,2.136-2.579,3.251-3.826c1.15-1.287,2.375-2.51,3.566-3.761
			C54.838,29.949,49.042,34.613,43.926,40.154z"/>
		<path fill="#F7931E" d="M35.093,50.489c-2.153,3.468-4.339,6.917-6.397,10.44c-1.204,2.062-2.193,4.25-3.278,6.381
			c0.06,0.045,0.119,0.09,0.179,0.134c0.2-0.09,0.415-0.156,0.598-0.272c4.85-3.097,9.94-5.744,15.189-8.086
			c0.824-0.367,1.264-0.916,1.553-1.755c1.775-5.147,3.892-10.151,6.438-14.969c0.311-0.592,0.604-1.193,1-1.977
			c-0.331,0.116-0.455,0.135-0.552,0.197c-4.607,2.959-9.217,5.914-13.81,8.896C35.641,49.718,35.33,50.107,35.093,50.489z"/>
		<path fill="#F7931E" d="M15.438,135.979c-1.269-5.933-2.075-11.955-2.363-18.021c-0.021-0.47-0.1-0.947-0.293-1.445
			c-5.198,4.613-9.7,9.583-10.531,16.945c-0.389-1.989-1.021-3.972-1.08-5.971c-0.035-1.221,0.771-2.484,1.262-3.702
			c1.535-3.805,4.396-6.619,7.192-9.47c0.875-0.894,1.864-1.676,2.747-2.563c0.27-0.27,0.507-0.721,0.506-1.089
			c-0.005-6.773,0.514-13.508,1.756-20.164c0.708-3.786,1.719-7.515,2.592-11.27c0.061-0.266,0.118-0.533,0.048-0.875
			c-3.299,2.481-5.988,5.532-8.523,8.697c-2.546,3.181-4.89,6.526-7.362,9.854c0.164-1.008,0.202-2.093,0.529-3.081
			c1.432-4.333,2.79-8.701,4.468-12.94c3.077-7.773,7.586-14.71,13.185-20.894c2.689-2.971,5.594-5.766,8.578-8.443
			c2.674-2.399,5.214-4.862,7.445-7.707c2.24-2.856,4.847-5.43,7.335-8.088c3.854-4.116,8.348-7.474,12.975-10.645
			c2.215-1.518,4.53-2.922,6.916-4.154c3.347-1.728,6.714-3.48,10.232-4.79c3.405-1.267,6.999-2.054,10.541-2.929
			c5.675-1.401,11.458-2.068,17.299-2.089c3.114-0.011,6.253,0.048,9.342,0.415c4.114,0.487,8.231,1.127,12.277,2.021
			c5.791,1.279,11.385,3.25,16.706,5.884c3.481,1.722,6.769,3.762,10.249,5.483c0.188,0.092,0.536,0.178,0.536,0.26V0H0v150h19.394
			C17.746,145.361,16.457,140.735,15.438,135.979z"/>
		<path fill="#F7931E" d="M56.611,37.898c-3.431,4.725-6.091,9.872-8.27,15.276c-0.424,1.051-0.815,2.116-1.291,3.353
			c0.438-0.126,0.655-0.171,0.859-0.251c6.664-2.643,13.434-4.971,20.289-7.038c-0.757-2.65-1.58-5.293-2.473-7.928
			c0.824,0.62,1.668,1.217,2.472,1.863c1.831,1.473,3.639,2.97,5.425,4.488c0.209-0.059,0.419-0.121,0.629-0.179
			c0.872-0.242,1.032-0.624,1.057-1.417c0.1-3.363,0.215-6.727,0.426-10.085c0.121-1.902,0.438-3.792,0.683-5.809
			c-0.292,0.057-0.453,0.075-0.606,0.118c-6.213,1.733-12.238,3.98-18.082,6.708C57.305,37.195,56.884,37.522,56.611,37.898z"/>
		<path fill="#F7931E" d="M45.345,62.221c-2.593,8.828-3.964,17.854-4.432,27.027c-0.08,1.57-0.11,3.143-0.168,4.847
			c0.585-0.226,1.014-0.373,1.43-0.554c7.713-3.359,15.569-6.316,23.555-8.91c0.804-2.67,1.517-5.378,2.121-8.13
			c0.762-3.467,1.15-7.016,1.71-10.526c0.088-0.006,0.175-0.013,0.263-0.02c0.279,4.304,0.646,8.604,0.821,12.913
			c0.057,1.395,0.094,2.789,0.11,4.183c0.984-0.299,1.97-0.594,2.957-0.883c-0.449-10.01-2.048-19.875-4.61-29.631
			c-7.647,2.373-15.132,5.206-22.52,8.312C45.918,61.127,45.555,61.505,45.345,62.221z"/>
		<path fill="#F7931E" d="M124.082,25.331c-0.419-0.272-0.954-0.472-1.448-0.5c-6.534-0.377-13.06-0.189-19.578,0.343
			c-0.147,0.012-0.289,0.074-0.542,0.141c0.675,1.168,1.365,2.217,1.912,3.335c1.726,3.526,3.421,7.068,5.072,10.63
			c0.34,0.731,0.682,1.066,1.542,0.958c1.778-0.224,3.57-0.335,5.357-0.482c2.876-0.236,5.751-0.518,8.631-0.681
			c3.325-0.188,6.656-0.277,9.984-0.389c1.334-0.044,2.67-0.033,4.204-0.049c-0.465-0.504-0.767-0.843-1.079-1.172
			C133.846,32.965,129.322,28.73,124.082,25.331z"/>
		<path fill="#F7931E" d="M99.849,21.34c0.172,0.208,0.627,0.273,0.942,0.258c4.26-0.203,8.517-0.434,12.774-0.65
			c0.783-0.04,1.568-0.044,2.352-0.064c0.014-0.114,0.026-0.229,0.04-0.344c-6.547-3.461-13.508-5.314-21.054-5.361
			C96.636,17.352,98.219,19.366,99.849,21.34z"/>
		<path fill="#F7931E" d="M114.833,15.882c0.325,0.188,0.645,0.388,0.976,0.564c2.179,1.161,4.358,2.321,6.543,3.474
			c0.833,0.44,1.645,1.133,2.523,1.241c3.598,0.442,7.218,0.706,10.831,1.027c0.195,0.017,0.396-0.04,0.596-0.062
			c0.013-0.093,0.026-0.186,0.038-0.278c-6.897-2.875-13.973-5.144-21.387-6.259C114.913,15.687,114.874,15.784,114.833,15.882z"/>
		<path fill="#F7931E" d="M138.286,26.331c-2.524-0.454-5.084-0.703-7.628-1.043c-0.034,0.069-0.068,0.137-0.103,0.206
			c0.21,0.203,0.406,0.421,0.631,0.606c4.565,3.764,8.852,7.818,12.771,12.258c0.238,0.271,0.678,0.455,1.05,0.468
			c1.678,0.059,3.445,0.133,4.992,0.239v-9.821c-0.516-0.333-1.027-0.607-1.592-0.761C145.075,27.574,141.692,26.943,138.286,26.331
			z"/>
	</g>
</g>
<g id="Calque_3" display="none">
	<rect x="-241" y="-434" display="inline" fill="#F7931E" width="824" height="906"/>
	<path display="inline" fill-rule="evenodd" clip-rule="evenodd" fill="#FFFFFF" d="M521.347-229.712
		c-26.855-19.06-54.364-34.754-84.404-45.752c-0.396-0.146-0.947,0.133-2.019,0.315c1.445,1.969,2.6,3.69,3.899,5.293
		c25.53,31.477,46.271,65.703,60.022,103.995c0.653,1.822,2.703,3.81,4.539,4.433c16.325,5.539,31.753,12.764,45.122,23.786
		c4.917,4.057,9.241,8.828,13.836,13.274c4.951,4.789,4.528,11.49,6.046,17.454c1.241,4.877,1.782,9.933,2.267,15.067
		c-9.173-22.661-28.041-35.07-48.08-46.169c-4.45-2.465-9.316-4.175-13.989-6.232c-0.284,0.39-0.568,0.78-0.853,1.17
		c1.15,3.609,2.284,7.225,3.452,10.828c10.977,33.874,17.759,68.562,19.255,104.146c0.565,13.481-0.171,27.02-0.438,40.527
		c-0.047,2.353,0.689,3.723,2.765,4.88c12.037,6.71,22.834,14.938,31.938,25.429c5.075,5.85,6.808,11.973,4.493,19.37
		c-1.177,3.756-1.926,7.646-2.974,11.446c-0.163,0.592-0.884,1.03-1.788,2.024c-5.037-20.35-16.733-34.595-35.675-43.559
		c-7.462,72.341-34.794,136.059-78.975,191.716c2.285,5.495,5.065,10.22,6.199,15.309c2.48,11.145-1.546,21.006-8.152,29.76
		c-3.601,4.768-8.258,8.726-11.988,13.41c-6.83,8.578-16.255,13.939-25.081,19.755c-9.717,6.404-20.482,11.298-31.037,16.333
		c-22.43,10.702-45.533,19.839-69.446,26.588c-16.229,4.58-32.828,7.846-49.253,11.738c-1.648,0.39-3.235,1.044-4.851,1.574
		c-0.021,0.465-0.042,0.928-0.063,1.391c9.239,2.679,18.48,5.356,27.72,8.034c-0.048,0.324-0.098,0.646-0.146,0.969
		c-8.599-0.654-17.202-1.237-25.793-1.984c-9.558-0.833-19.092-2.345-28.658-2.547c-6.308-0.133-12.66,1.471-18.979,2.393
		c-23.637,3.451-47.348,6.283-71.251,6.624c-14.326,0.203-28.663-0.612-42.994-0.727c-15.424-0.123-30.584-2.291-45.559-5.688
		c-16.932-3.842-33.514-8.842-46.74-20.884c-8.938-8.137-13.608-19.206-8.778-32.293c0.913-2.479,0.277-3.332-1.718-4.446
		c-26.18-14.623-50.215-32.24-71.725-53.092c-10.644-10.316-20.476-21.498-30.293-32.625c-14.027-15.894-25.566-33.615-36.689-51.61
		c-0.912-1.481-1.678-3.062-2.548-4.665c-10.177,8.929-17.425,29.296-17.726,49.771c-3.539-4.342-6.839-8.343-10.088-12.383
		c-3.769-4.688-1.352-9.671-0.186-14.303c3.064-12.174,10.329-22.192,17.848-31.921c2.305-2.979,2.497-5.224,0.95-8.529
		c-12.387-26.438-20.974-54.157-27.073-82.65c-4.924-23.022-8.051-46.311-9.169-69.849c-0.085-1.823-0.388-3.637-1.138-5.568
		c-20.17,17.9-37.639,37.201-40.86,65.766c-1.511-7.717-3.96-15.403-4.191-23.159c-0.14-4.737,2.988-9.633,4.897-14.357
		c5.955-14.765,17.057-25.679,27.902-36.739c3.396-3.467,7.236-6.501,10.661-9.942c1.044-1.047,1.964-2.796,1.962-4.225
		c-0.02-26.282,1.995-52.413,6.813-78.234c2.747-14.688,6.668-29.156,10.057-43.726c0.236-1.03,0.459-2.066,0.186-3.396
		c-12.803,9.625-23.236,21.464-33.07,33.744c-9.882,12.342-18.972,25.32-28.564,38.233c0.637-3.913,0.783-8.12,2.049-11.955
		c5.557-16.813,10.829-33.761,17.338-50.209c11.938-30.16,29.434-57.074,51.156-81.066c10.436-11.525,21.703-22.375,33.284-32.761
		c10.376-9.309,20.226-18.866,28.884-29.904c8.695-11.082,18.806-21.069,28.461-31.381c14.957-15.97,32.389-28.999,50.34-41.301
		c8.598-5.89,17.58-11.337,26.836-16.118c12.984-6.705,26.05-13.503,39.703-18.583c13.215-4.916,27.156-7.972,40.896-11.365
		c22.02-5.435,44.461-8.023,67.119-8.106c12.088-0.043,24.264,0.189,36.247,1.609c15.968,1.89,31.938,4.374,47.636,7.842
		c22.471,4.961,44.176,12.61,64.823,22.828c13.504,6.683,26.396,14.599,39.9,21.274c6.318,3.125,13.46,4.57,20.195,6.869
		c38.218,13.053,73.945,30.608,104.921,57.072c16.137,13.783,30.227,29.426,43.521,45.838c5.059,6.246,9.581,12.93,14.29,19.457
		C519.627-233.198,520.202-231.813,521.347-229.712z M96.501,35.038c0.121,0.861,0.174,1.495,0.304,2.112
		c12.842,61.243,30.168,121.201,51.495,180.022c1.213,3.347,2.836,3.348,5.737,2.539c31.199-8.685,62.784-15.544,94.933-19.662
		c7.584-0.973,15.171-1.93,22.904-2.912c-0.581-64.567-9.599-128.008-19.106-191.369C233.183,4.771,113.305,27.206,96.501,35.038z
		 M-57.475,97.549c-0.023,0.777-0.106,1.055-0.031,1.274c13.764,39.34,31.267,76.849,54.717,111.425
		c12.757,18.811,26.908,36.51,42.718,52.865c1.478,1.53,2.759,2.358,4.94,1.088c24.754-14.402,51.037-25.418,77.975-34.97
		c4.275-1.517,8.541-3.064,12.732-4.569C114.012,163.5,96.095,101.895,83.041,38.738C33.615,53.428-12.951,73.338-57.475,97.549z
		 M285.889,196.219c9.264-0.423,18.336-0.914,27.413-1.237c21.335-0.758,42.639-0.185,63.847,2.29
		c3.264,0.382,4.755-0.721,5.883-3.251c3.471-7.784,7.111-15.501,10.315-23.396c9.25-22.79,16.022-46.32,20.07-70.588
		c1.638-9.815,2.848-19.707,4.076-29.587c2.689-21.621,2.641-43.344,2.201-65.077c-0.05-2.441-0.822-3.665-3.531-3.773
		c-9.159-0.365-18.304-1.169-27.464-1.405C356.188-0.64,323.682-0.53,291.22,1.763c-7.856,0.556-15.684,1.54-23.891,2.364
		C277.443,68.022,284.313,131.684,285.889,196.219z M250.292-8.606c-0.048-1.104,0.014-1.871-0.125-2.601
		c-9.392-49.933-20.52-99.459-34.354-148.361c-0.618-2.18-1.425-3.212-3.961-2.816c-5.302,0.822-10.705,1.046-15.981,1.977
		c-32.856,5.802-65.706,11.628-98.517,17.679c-9.392,1.732-18.638,4.239-28.21,6.451c6.284,53.317,13.364,106.11,23.87,158.719
		C144.865,7.67,197.168-2.287,250.292-8.606z M-63.111,82.995c1.053-0.277,1.32-0.297,1.539-0.413
		C-36.08,69.03-9.713,57.399,17.427,47.617C36.812,40.631,56.441,34.324,76,27.832c2.575-0.854,3.784-1.709,3.107-4.787
		c-1.92-8.749-3.74-17.536-5.141-26.381c-5.759-36.403-11.383-72.826-16.959-109.261c-0.978-6.382-1.485-12.835-2.267-19.753
		c-12.636,3.964-24.749,7.601-36.755,11.559C-16.35-109.474-50.097-96.647-82.788-81.13c-2.534,1.201-3.612,2.459-3.43,5.39
		c0.626,9.968,0.666,19.978,1.446,29.929c2.588,33.017,4.396,66.152,13.166,98.343C-68.853,62.631-65.984,72.698-63.111,82.995z
		 M417.916-10.578c-0.109-2.084-0.082-3.484-0.272-4.857c-2.596-18.747-4.608-37.601-7.978-56.207
		c-5.832-32.211-15.89-63.247-28.144-93.578c-1.02-2.527-2.16-4.137-5.387-4.24c-43.807-1.41-87.549-0.915-131.169,3.876
		c-5.268,0.577-10.527,1.182-16.135,1.812c14.964,50.925,26.254,102.087,35.613,154.101
		C315.489-14.99,366.418-15.303,417.916-10.578z M187.265-290.654c2.056,5.799,3.702,11.41,5.992,16.743
		c12.773,29.724,21.272,60.85,30.327,91.791c0.863,2.948,1.726,4.044,5.086,3.664c44.286-5.02,88.733-6.402,133.271-5.546
		c4.051,0.079,8.099,0.182,12.374,0.277c-0.126-0.926-0.069-1.473-0.276-1.889c-7.027-14.078-13.304-28.606-21.308-42.107
		c-12.596-21.25-26.445-41.753-39.549-62.707c-2.668-4.267-5.749-6.298-10.829-5.763c-3.27,0.345-6.624-0.184-9.938-0.154
		c-17.378,0.159-34.766,0.185-52.139,0.655c-8.062,0.216-16.098,1.383-24.152,2.034c-6.062,0.489-12.146,0.732-18.197,1.302
		C194.428-292.025,190.973-291.261,187.265-290.654z M47.917-263.758c-1.63,0.523-2.808,0.948-4.01,1.283
		c-36.672,10.243-72.304,23.407-107.382,38.151c-2.574,1.083-3.984,2.55-4.799,5.327c-10.06,34.252-15.379,69.271-17.195,104.866
		c-0.309,6.093-0.428,12.193-0.654,18.805c2.271-0.874,3.938-1.447,5.551-2.148c42.433-18.482,85.982-33.836,130.491-46.471
		c2.978-0.843,3.61-2.029,3.438-5.019c-1.892-32.967-3.639-65.941-5.335-98.919C47.758-253.079,47.941-258.296,47.917-263.758z
		 M68.195-148.186c47.188-12.852,94.901-22.017,143.724-27.765c-3.89-12.311-7.229-23.988-11.265-35.42
		c-8.775-24.861-17.913-49.598-26.877-74.394c-0.741-2.055-1.7-2.991-4.207-2.626c-35.358,5.131-70.346,12.099-105.021,20.699
		c-2.894,0.719-3.64,1.965-3.479,4.707c2.193,37.293,4.314,74.59,6.475,111.884C67.597-150.246,67.914-149.408,68.195-148.186z
		 M-100.104-72.214c-1.597,0.729-2.902,1.222-4.107,1.89c-10.07,5.594-20.15,11.178-30.183,16.846
		c-14.94,8.441-29.093,18.078-42.771,28.425c-2.389,1.808-3.624,3.924-3.375,7.172c0.564,7.434,0.575,14.907,1.085,22.344
		c3.036,44.325,13.175,86.938,31.004,127.675c1.343,3.069,2.887,6.052,4.579,9.576c20.643-20.759,43.791-36.922,68.249-51.403
		C-94.041,37.535-98.749-16.889-100.104-72.214z M437.302,215.086c0.605-0.399,0.873-0.495,1.024-0.687
		c2.315-2.892,4.658-5.761,6.912-8.703c26.533-34.616,45.725-73.003,58.64-114.587c3.012-9.693,6.205-19.316,7.336-29.526
		c1.213-10.942,2.994-21.825,4.647-32.716c0.397-2.61-0.365-3.786-2.918-4.775c-24.104-9.355-49-15.581-74.561-19.256
		c-1.076-0.154-2.177-0.142-3.566-0.225c0.972,68.413-10.832,133.792-41.448,195.506
		C409.022,203.17,423.726,207.407,437.302,215.086z M397.671-168.869c19.523,51.96,32.561,104.402,35.975,159.31
		c28.105,3.769,55.709,8.868,82.853,19.333c0.063-1.826,0.138-3.089,0.146-4.351c0.188-27.298-1.307-54.467-6.121-81.39
		c-4.312-24.116-10.763-47.645-18.977-70.717c-1.313-3.691-3.41-5.558-7.161-6.326c-20.182-4.14-40.298-8.616-60.52-12.545
		C415.499-167.18,406.925-167.732,397.671-168.869z M-70.742,104.986c-2.668,1.747-4.73,3.275-6.951,4.525
		c-21.228,11.954-40.254,26.811-57.865,43.577c-1.862,1.772-1.984,3.005-0.766,5.208c17.568,31.679,39.002,60.435,64.963,85.713
		c18.171,17.691,37.028,34.572,59.74,46.47c5.045,2.643,9.951,5.544,14.039,7.834c9.037-8.431,17.493-16.322,26.125-24.379
		C-16.984,225.491-48.127,168.03-70.742,104.986z M155.387,233.397c2.823,6.67,5.336,12.81,8.006,18.884
		c8.368,19.039,17.81,37.495,30.564,54.039c7.125,9.242,14.551,18.333,24.496,24.709c10.115,6.484,19.164,5.358,27.819-3.035
		c6.361-6.17,9.915-13.959,12.626-22.122c7.517-22.633,11.373-45.98,12.753-69.741c0.479-8.26,0.484-16.544,0.717-25.207
		C232.368,214.543,193.953,222.559,155.387,233.397z M328.76-294.525c-0.356,0.463-0.714,0.928-1.069,1.391
		c5.509,7.508,11.345,14.802,16.467,22.568c17.864,27.079,33.305,55.497,46.125,85.312c0.859,1.996,1.845,3.054,4.146,3.174
		c4.346,0.224,8.698,0.605,13.004,1.227c18.638,2.695,37.276,5.397,55.879,8.326c6.37,1.002,12.634,2.681,19.169,4.098
		c-0.129-0.735-0.112-1.122-0.264-1.425c-6.83-13.742-13.294-27.682-20.601-41.164C448.136-235.894,431.518-258.643,413-280
		c-1.159-1.337-2.978-2.578-4.674-2.906c-18.23-3.502-36.451-7.115-54.78-10.039C345.407-294.243,337.029-294.043,328.76-294.525z
		 M-181.216-40.783c1.472-0.866,1.917-1.084,2.315-1.366c24.049-17.153,49.298-32.268,76.193-44.545
		c2.373-1.084,2.972-2.568,2.964-5.064c-0.126-35.866,3.237-71.366,11.557-106.317c1.29-5.411,2.674-10.797,4.144-16.698
		c-1.141,0.359-1.738,0.492-2.288,0.729c-23.389,10.077-45.435,22.482-65.899,37.699c-2.943,2.188-4.665,4.695-5.8,8.14
		c-10.618,32.249-17.584,65.267-20.997,99.028C-179.95-60.051-180.449-50.881-181.216-40.783z M140.705,238.241
		c-30.718,9.487-60.422,21.183-89.124,37.523c7.509,6.143,14.287,11.962,21.342,17.423c40.999,31.719,87.197,50.53,138.873,55.605
		c1.534,0.152,3.104-0.057,4.656-0.096C177.521,321.094,158.23,280.493,140.705,238.241z M52.285-343.347
		c-1.133,0.218-1.756,0.291-2.354,0.458c-24.105,6.724-47.48,15.444-70.155,26.026c-1.644,0.764-3.276,2.034-4.333,3.491
		c-13.313,18.334-23.635,38.303-32.088,59.272c-1.645,4.081-3.166,8.212-5.01,13.011c1.699-0.491,2.545-0.664,3.336-0.976
		c33.439-13.26,67.558-24.498,102.205-34.12c3.381-0.938,4.006-2.42,4.098-5.496c0.391-13.049,0.837-26.103,1.656-39.13
		C50.108-328.19,51.342-335.522,52.285-343.347z M167.134-302.84c-8.175-18.759-17.313-37.037-27.838-54.632
		c-1.598-2.673-3.317-3.286-6.198-2.725c-20.699,4.042-41.416,8.001-62.145,11.9c-2.422,0.455-3.395,1.615-3.666,4.013
		c-1.648,14.503-3.518,28.979-5.08,43.49c-0.669,6.204-0.773,12.47-1.117,18.398C96.555-289.233,131.656-296,167.134-302.84z
		 M295.949-310.503c-1.801-1.958-2.972-3.272-4.186-4.546c-16.654-17.461-34.205-33.893-54.537-47.083
		c-1.623-1.054-3.704-1.831-5.618-1.941c-25.352-1.462-50.672-0.731-75.965,1.333c-0.568,0.046-1.119,0.285-2.101,0.546
		c2.62,4.533,5.295,8.603,7.416,12.94c6.697,13.681,13.274,27.425,19.685,41.243c1.316,2.838,2.641,4.138,5.982,3.716
		c6.898-0.869,13.852-1.3,20.785-1.87c11.16-0.916,22.312-2.009,33.488-2.64c12.899-0.729,25.823-1.077,38.739-1.508
		C284.813-310.487,289.996-310.44,295.949-310.503z M374.34,210.304c-29.96-2.604-58.981-3.13-88.265-0.453
		c-0.868,38.469-3.49,76.321-18.841,113.131C312.119,293.469,348.184,257.231,374.34,210.304z M285.115,341.62
		c0.201,0.521,0.403,1.041,0.604,1.563c3.484-0.55,6.98-1.038,10.452-1.662c8.55-1.538,17.527-1.963,25.546-4.948
		c20.01-7.45,39.86-15.475,59.246-24.416c16.533-7.624,31.999-17.346,45.438-29.902c6.694-6.252,12.76-13.004,15.887-21.826
		c3.006-8.479,2.328-16.474-3.556-23.941c-1.359,1.324-2.425,2.423-3.552,3.452c-13.125,12.011-25.749,24.639-39.506,35.878
		c-25.104,20.505-52.759,37.165-81.92,51.328C304.136,331.816,294.657,336.786,285.115,341.62z M427.07,227.014
		c-0.889-0.774-1.144-1.073-1.461-1.263c-11.422-6.825-24.153-9.758-37.012-12.171c-1.079-0.202-3.119,1.418-3.761,2.675
		c-11.417,22.359-25.527,43.02-42.555,61.277c-14.718,15.78-31.3,29.824-47.061,44.633c-0.932,0.876-1.891,1.722-2.837,2.584
		c0.297,0.349,0.595,0.698,0.892,1.045C344.212,301.696,388.642,268.752,427.07,227.014z M262.742-362.296
		c-0.132,0.267-0.263,0.532-0.395,0.801c0.813,0.786,1.575,1.633,2.446,2.351c17.714,14.606,34.345,30.333,49.55,47.562
		c0.926,1.051,2.766,1.765,4.21,1.816c21.925,0.771,43.771,2.191,65.309,6.736c2.267,0.479,4.626,0.513,8.037,0.866
		c-1.583-1.735-2.252-2.664-3.102-3.371c-14.265-11.863-28.457-23.819-42.894-35.469c-4.336-3.499-9-7.485-14.157-8.893
		c-12.932-3.531-26.19-5.977-39.407-8.354C282.547-360.011,272.614-360.977,262.742-362.296z M-145.592-199.248
		c0.229,0.173,0.462,0.346,0.691,0.518c0.775-0.349,1.611-0.603,2.32-1.057c18.814-12.013,38.566-22.283,58.934-31.372
		c3.198-1.425,4.903-3.553,6.024-6.811c6.888-19.973,15.103-39.387,24.978-58.082c1.208-2.296,2.344-4.63,3.881-7.669
		c-1.281,0.449-1.765,0.523-2.143,0.765c-17.875,11.48-35.762,22.945-53.579,34.515c-1.44,0.934-2.646,2.44-3.565,3.924
		c-8.352,13.457-16.838,26.837-24.824,40.511C-137.547-216.006-141.383-207.517-145.592-199.248z M188.698,364.379
		c0.063-0.471,0.125-0.942,0.19-1.415c-1.281-0.332-2.546-0.774-3.849-0.978c-20.302-3.179-40.624-6.227-60.909-9.519
		c-11.232-1.824-22.494-3.644-33.582-6.171c-27.159-6.188-53.275-15.462-78.42-27.484c-1.009-0.483-2.738-0.076-3.841,0.486
		c-0.62,0.317-0.933,1.818-0.889,2.761c0.534,11.191,7.077,18.094,16.368,23.257c20.646,11.472,43.547,15.276,66.322,18.843
		c13.968,2.188,28.314,2.249,42.509,2.601c10.808,0.268,21.646-0.404,32.462-0.862C172.947,365.563,180.819,364.896,188.698,364.379
		z M15.84,304.258c30.182,14.353,60.523,24.033,91.911,30.552c-11.729-7.92-24.032-14.818-35.364-23.057
		c-11.443-8.316-21.924-17.958-33.575-27.644C31.699,290.348,24.133,296.982,15.84,304.258z M71.834-363.218
		c19.02-3.721,37.344-7.304,56.025-10.96c-4.113-4.89-7.666-9.806-11.945-13.977c-3.336-3.253-7.354-5.992-11.47-8.22
		c-5.897-3.191-11.729-3.459-17.354,1.506C77.525-386.423,74.607-375.057,71.834-363.218z M-5.095-338.119
		c0.902-0.044,1.293,0.025,1.62-0.09c17.471-6.177,34.857-12.606,52.447-18.412c4.794-1.582,7.314-3.64,8.596-8.662
		c2.125-8.347,5.256-16.439,7.963-24.65C52.619-388.472,10.656-357.766-5.095-338.119z M124.015-401.521
		c6.723,8.433,12.863,16.247,19.188,23.909c0.667,0.806,2.431,1.06,3.657,1.001c16.526-0.786,33.042-1.685,49.563-2.525
		c3.037-0.154,6.083-0.169,9.125-0.249c0.051-0.445,0.102-0.89,0.154-1.336C180.302-394.15,153.292-401.338,124.015-401.521z
		 M457.506-282.568c0.171-0.36,0.342-0.723,0.512-1.086c-24.011-21.455-50.926-38.337-80.58-50.927
		c0.046,0.995,0.352,1.57,0.8,1.999c12.209,11.667,24.417,23.335,36.684,34.94c0.968,0.915,2.292,1.583,3.569,2.018
		c11.017,3.75,22.06,7.425,33.097,11.115C453.557-283.85,455.533-283.213,457.506-282.568z M-147.302-229.08
		c-14.019,9.815-52.988,64.375-52.782,73.482c0.75-0.69,1.379-1.307,2.049-1.879c9.035-7.737,18.127-15.409,27.076-23.248
		c1.82-1.595,3.533-3.601,4.555-5.764c6.142-13.05,12.069-26.201,18.053-39.325C-148.018-226.544-147.85-227.352-147.302-229.08z
		 M201.81-399.929c-0.156,0.377-0.311,0.757-0.465,1.135c1.259,0.732,2.496,1.507,3.78,2.191
		c8.455,4.504,16.913,9.006,25.388,13.478c3.234,1.709,6.379,4.395,9.792,4.816c13.958,1.716,28.003,2.738,42.021,3.982
		c0.758,0.069,1.54-0.152,2.313-0.239c0.05-0.36,0.1-0.72,0.151-1.08C258.024-386.802,230.57-395.602,201.81-399.929z
		 M-5.612-358.053c-25.825,13.84-48.313,31.938-68.167,53.435c0.764,0.204,1.338,0.103,1.825-0.164
		c10.208-5.589,20.472-11.089,30.575-16.867c3.348-1.918,6.666-4.2,9.314-6.968c4.479-4.684,8.286-10.003,12.613-14.843
		C-14.984-348.455-10.238-353.198-5.612-358.053z"/>
</g>
</svg>
