<svg xmlns="http://www.w3.org/2000/svg" width="150" height="150"><path fill="#fff" d="M0 0h150v150H0z"/><path d="M147.363 43.113L150 46.688V42.85l-2.38-.095-.258.358zm-29.82 33.7l-4.12.5-9.914 1.76c6.627 8.938 12.173 18.468 15.167 29.322.83 3 1.406 6.003 1.695 8.975l7.078-.932c-.013-.284.004-.482-.032-.67-2.42-12.87-5.288-25.633-8.854-38.237-.16-.562-.368-.828-1.02-.726zM66.18 131.4c4.152-10.97 6.503-22.474 7.35-34.427a127.63 127.63 0 0 0 .292-11.416l-3.063.955a139.01 139.01 0 0 1-1.036 15.49c-1.343 10.82-3.74 21.282-8 31.12a161.45 161.45 0 0 1 4.448-1.72zM150 118.623c-3.865.06-8.016.2-12.037.495-2.024.143-4.025.436-6.14.648 1.593 10.066 2.9 20.183 3.736 30.234H150v-31.377zm-90.627 19.514c-1.33 2.606-2.807 5.2-4.446 7.702L51.97 150h5.113c2.804-4.64 5.22-9.274 7.277-14.055l-4.988 2.192zm61.203-17.244c.127 6.442-1.165 12.82-4.222 19.02-1.82 3.692-4.1 6.995-6.76 10.088h22.35c-.937-10.05-2.372-19.915-3.857-29.8-1.227-.064-3.983.193-7.5.703zm5.467-44.906l-4.143.467c3.857 13.125 6.74 26.3 9.154 39.716a203.81 203.81 0 0 1 18.945-1.078v-40.28c-7.988-.02-15.974.298-23.956 1.175zm-85.613 55.3c-2.295-10.235-3.03-20.676-3.3-31.245-.4.188-.747.315-1.06.487l-7.778 4.342c-3.85 2.175-7.5 4.66-11.023 7.326-.616.466-.934 1.012-.87 1.85.146 1.916.148 3.842.28 5.76.713 10.403 2.95 20.44 6.813 30.08 6.05-5.857 11.72-12.034 16.928-18.597zm-24.194-23.145l.597-.353c6.198-4.42 12.705-8.316 19.637-11.48.612-.28.766-.662.765-1.305-.033-9.244.834-18.393 2.98-27.4l1.067-4.304c-.294.093-.448.127-.6.188-6.028 2.597-11.7 5.794-16.984 9.717a3.99 3.99 0 0 0-1.495 2.098 119.94 119.94 0 0 0-5.412 25.522c-.238 2.353-.367 4.716-.565 7.318zm48.228-19.575c-7.777 2.658-15.424 5.647-22.86 9.177-.653.3-.932.633-.885 1.4l.373 7.713c.54 6.898.95 13.817 2.3 20.6a162.37 162.37 0 0 0 8.932-13.21c4.953-8.185 9.1-16.712 12.15-25.677zm36.548-12.77a258.16 258.16 0 0 1 16.548-2.49c-1.003-3.173-1.863-6.182-2.903-9.13l-6.927-19.174c-.192-.53-.44-.77-1.085-.677-9.112 1.322-18.13 3.118-27.067 5.334-.745.186-.938.507-.896 1.213l.074 1.27c8.05 7.26 15.544 15.072 22.256 23.654zM24.706 60.464c.086-.2.13-.396.27-.842-3.613 2.53-13.656 16.6-13.604 18.938.193-.178.355-.337.527-.484l6.98-5.992c.468-.4.9-.928 1.174-1.486l4.653-10.134zM61.628 31.52c.233-.01.333.007.417-.023l13.518-4.746c1.236-.407 1.886-.938 2.216-2.232.548-2.15 1.354-4.237 2.053-6.353-3.33.377-14.144 8.3-18.204 13.354zm79.24 10.805c-.843.1-1.708-.047-2.562-.04l-13.438.168c-2.078.056-4.15.356-6.226.524l-4.7.335c-.9.085-1.792.282-2.747.438l1.544 4.315c3.292 7.66 5.483 15.683 7.816 23.657.223.76.4 1.043 1.277.945 9.372-1.063 18.88-1.492 28.157-1.5V53.843L143.62 43.8c-.684-1.1-1.444-1.623-2.754-1.486zM89.86 16.505c-1.52-.823-3.022-.892-4.472.388C82.92 19.07 82.17 22 81.453 25.05l14.44-2.825-3.08-3.603c-.858-.838-1.893-1.544-2.955-2.118zM80.283 29.93l-1.3 11.2-.3 4.742 27.33-5.27c-2.107-4.835-4.462-9.546-7.175-14.08-.4-.7-.854-.848-1.598-.703l-16.017 3.067c-.622.118-.872.418-.943 1.035zM43.926 40.154a.61.61 0 0 0 .471-.042l7.88-4.348c.863-.494 1.718-1.083 2.4-1.795 1.154-1.208 2.136-2.58 3.25-3.826l3.566-3.76c-6.656 3.567-12.452 8.23-17.568 13.772zM35.093 50.5l-6.397 10.44c-1.204 2.062-2.193 4.25-3.278 6.38l.18.134c.2-.1.415-.156.598-.272 4.85-3.097 9.94-5.744 15.2-8.086.824-.367 1.264-.916 1.553-1.755 1.775-5.147 3.892-10.15 6.438-14.97l1-1.977c-.33.116-.455.135-.552.197l-13.8 8.896c-.372.24-.683.63-.92 1zm-19.655 85.5c-1.27-5.933-2.075-11.955-2.363-18.02a4.47 4.47 0 0 0-.293-1.445c-5.198 4.613-9.7 9.583-10.53 16.945-.4-2-1.02-3.972-1.08-5.97-.035-1.22.77-2.484 1.262-3.702 1.535-3.805 4.396-6.62 7.192-9.47.875-.894 1.864-1.676 2.747-2.563.27-.27.507-.72.506-1.1-.005-6.773.514-13.508 1.756-20.164.708-3.786 1.72-7.515 2.592-11.27.06-.266.118-.533.048-.875-3.3 2.48-5.988 5.532-8.523 8.697-2.546 3.18-4.9 6.526-7.362 9.854.164-1.008.202-2.093.53-3.08 1.432-4.333 2.8-8.7 4.468-12.94C9.463 73.1 13.972 66.174 19.57 60c2.7-2.97 5.594-5.766 8.578-8.443 2.674-2.4 5.214-4.862 7.445-7.707 2.24-2.856 4.847-5.43 7.335-8.088 3.854-4.116 8.348-7.474 12.975-10.645 2.215-1.518 4.53-2.922 6.916-4.154 3.347-1.728 6.714-3.48 10.232-4.8 3.405-1.267 7-2.054 10.54-2.93 5.675-1.4 11.458-2.068 17.3-2.1 3.114-.01 6.253.048 9.342.415 4.114.487 8.23 1.127 12.277 2.02a73.18 73.18 0 0 1 16.706 5.884c3.48 1.722 6.77 3.762 10.25 5.483.188.092.536.178.536.26V0H0v150h19.394c-1.648-4.64-2.937-9.265-3.956-14.02zM56.6 37.898c-3.43 4.725-6.1 9.872-8.27 15.276-.424 1.05-.815 2.116-1.3 3.353.438-.126.655-.17.86-.25 6.664-2.643 13.434-4.97 20.3-7.038a171.21 171.21 0 0 0-2.473-7.928c.824.62 1.668 1.217 2.472 1.863l5.425 4.488.63-.18c.872-.242 1.032-.624 1.057-1.417l.426-10.085c.12-1.902.438-3.792.683-5.8-.292.057-.453.075-.606.118-6.213 1.733-12.238 3.98-18.082 6.708a2.99 2.99 0 0 0-1.118.901zM45.345 62.22c-2.593 8.828-3.964 17.854-4.432 27.027-.08 1.57-.1 3.143-.168 4.847.585-.226 1.014-.373 1.43-.554 7.713-3.36 15.57-6.316 23.555-8.9a109.39 109.39 0 0 0 2.12-8.13c.762-3.467 1.15-7.016 1.7-10.526l.263-.02.82 12.913.1 4.183 2.957-.883c-.45-10-2.048-19.875-4.6-29.63-7.647 2.373-15.132 5.206-22.52 8.312-.664.278-1.027.656-1.237 1.372zm78.737-36.9c-.42-.272-.954-.472-1.448-.5-6.534-.377-13.06-.2-19.578.343-.147.012-.3.074-.542.14.675 1.168 1.365 2.217 1.912 3.335l5.072 10.63c.34.73.682 1.066 1.542.958 1.778-.224 3.57-.335 5.357-.482l8.63-.68c3.325-.188 6.656-.277 9.984-.4 1.334-.044 2.67-.033 4.204-.05l-1.08-1.172c-4.3-4.5-8.815-8.735-14.055-12.134zm-24.232-4c.172.208.627.273.942.258l12.774-.65 2.352-.064.04-.344c-6.547-3.46-13.508-5.314-21.054-5.36l4.946 6.16zm14.983-5.458l.976.564 6.543 3.474c.833.44 1.645 1.133 2.523 1.24 3.598.442 7.218.706 10.83 1.027.195.017.396-.04.596-.062l.038-.278c-6.897-2.875-13.973-5.144-21.387-6.26l-.12.293zm23.453 10.448l-7.628-1.043-.103.206.63.606c4.565 3.764 8.852 7.818 12.77 12.258.238.27.678.455 1.05.468l4.992.24v-9.82c-.516-.333-1.027-.607-1.592-.76-3.332-.9-6.715-1.54-10.12-2.152z" fill="#f7931e"/></svg>