<?xml version="1.0" standalone="no"?>
<!DOCTYPE svg PUBLIC "-//W3C//DTD SVG 20010904//EN"
 "http://www.w3.org/TR/2001/REC-SVG-20010904/DTD/svg10.dtd">
<svg version="1.0" xmlns="http://www.w3.org/2000/svg"
 width="150.000000pt" height="150.000000pt" viewBox="0 0 150.000000 150.000000"
 preserveAspectRatio="xMidYMid meet">
<metadata>
Created by potrace 1.11, written by Peter Selinger 2001-2013
</metadata>
<g transform="translate(0.000000,150.000000) scale(0.100000,-0.100000)"
fill="#000000" stroke="none">
<path d="M0 750 l0 -750 96 0 c86 0 95 2 90 18 -22 68 -46 181 -52 241 -7 71
-7 72 -27 54 -29 -26 -77 -104 -77 -126 0 -10 -4 -15 -10 -12 -31 19 5 109 69
170 40 39 41 42 41 105 0 36 9 108 20 160 10 52 18 96 16 97 -5 5 -84 -85
-114 -129 -13 -21 -28 -38 -33 -38 -14 0 54 183 91 245 41 68 331 376 410 436
75 56 194 114 287 141 65 19 101 22 218 22 167 -1 246 -19 384 -88 l91 -46 0
125 0 125 -750 0 -750 0 0 -750z"/>
<path d="M960 1342 c1 -4 9 -17 19 -29 17 -20 29 -23 97 -23 45 0 74 4 69 9
-23 20 -185 58 -185 43z"/>
<path d="M840 1308 c-24 -39 -26 -62 -5 -54 8 3 37 8 65 12 27 4 50 9 50 13
-1 20 -54 61 -79 61 -6 0 -20 -15 -31 -32z"/>
<path d="M1197 1316 c24 -14 67 -27 100 -31 l58 -6 -34 16 c-32 14 -139 45
-157 45 -5 0 10 -11 33 -24z"/>
<path d="M714 1267 c-33 -24 -66 -52 -74 -62 -14 -17 -13 -18 5 -11 11 5 40
15 65 23 54 19 67 29 75 66 10 37 -3 34 -71 -16z"/>
<path d="M1032 1243 c2 -5 18 -39 36 -77 l32 -69 61 7 c34 3 100 6 147 6 l86
0 -30 31 c-16 17 -51 49 -77 70 l-49 39 -105 0 c-57 0 -103 -3 -101 -7z"/>
<path d="M1378 1180 c50 -49 79 -70 97 -70 23 0 25 3 25 49 l0 50 -77 16 c-43
9 -87 18 -98 20 -11 3 10 -24 53 -65z"/>
<path d="M885 1223 c-38 -8 -73 -18 -76 -21 -4 -4 -9 -41 -13 -83 l-7 -76 133
25 c73 14 134 26 136 27 2 1 -14 35 -34 74 -41 78 -36 76 -139 54z"/>
<path d="M530 1177 c-30 -24 -62 -52 -70 -62 -27 -33 66 26 107 68 50 50 31
47 -37 -6z"/>
<path d="M660 1161 l-95 -38 -45 -86 c-25 -47 -43 -88 -40 -90 3 -3 48 9 100
28 96 33 100 37 86 83 -10 29 5 28 34 -3 38 -41 48 -32 55 49 4 41 6 79 4 85
-3 6 -43 -5 -99 -28z"/>
<path d="M427 1045 c-68 -44 -99 -80 -147 -175 l-20 -40 80 43 81 42 39 88
c21 48 37 87 37 87 -1 0 -33 -20 -70 -45z"/>
<path d="M1137 1063 c-10 -3 -17 -10 -15 -16 2 -7 23 -72 48 -145 30 -90 49
-131 57 -128 7 3 71 8 143 12 l130 7 0 83 c0 79 -2 87 -35 139 l-36 55 -137
-1 c-75 -1 -145 -3 -155 -6z"/>
<path d="M1486 1055 c4 -8 8 -15 10 -15 2 0 4 7 4 15 0 8 -4 15 -10 15 -5 0
-7 -7 -4 -15z"/>
<path d="M930 1030 c-123 -24 -140 -29 -140 -41 0 -5 31 -40 68 -77 38 -37 89
-90 113 -118 l44 -52 72 12 c39 6 75 14 78 18 4 4 -14 68 -40 143 l-48 135
-31 -1 c-17 -1 -69 -9 -116 -19z"/>
<path d="M571 930 c-57 -22 -106 -42 -109 -45 -11 -11 -42 -165 -48 -242 l-7
-84 39 16 c21 10 77 31 124 48 47 17 86 32 88 33 2 1 11 42 21 90 19 99 31 94
31 -13 0 -47 3 -64 13 -60 8 2 11 20 9 53 -6 96 -36 244 -50 244 -4 0 -54 -18
-111 -40z"/>
<path d="M199 843 c-86 -111 -104 -155 -35 -84 30 31 94 141 82 141 -2 0 -23
-26 -47 -57z"/>
<path d="M341 830 c-108 -60 -115 -69 -140 -172 -19 -78 -42 -238 -35 -238 1
0 26 16 55 36 30 20 75 47 102 60 46 24 47 25 47 72 0 51 24 226 35 255 10 24
-1 21 -64 -13z"/>
<path d="M1310 743 c-95 -7 -90 2 -60 -115 15 -57 35 -145 46 -197 l19 -93 50
6 c27 3 69 6 93 6 l42 0 0 200 0 200 -72 -2 c-40 -1 -93 -3 -118 -5z"/>
<path d="M1093 717 l-52 -12 31 -45 c43 -64 105 -196 119 -255 6 -27 13 -56
15 -62 2 -7 18 -13 35 -13 l32 0 -7 48 c-3 26 -23 115 -44 197 -42 168 -36
162 -129 142z"/>
<path d="M715 628 c-2 -7 -6 -49 -10 -93 -7 -97 -28 -202 -58 -294 -22 -68
-22 -69 -3 -61 34 12 78 188 91 368 6 67 4 92 -4 92 -6 0 -13 -6 -16 -12z"/>
<path d="M575 586 c-33 -12 -84 -33 -114 -46 l-53 -23 7 -101 c4 -56 10 -121
14 -146 l6 -45 41 60 c70 102 174 309 162 320 -2 2 -30 -7 -63 -19z"/>
<path d="M280 445 c-121 -72 -114 -61 -107 -162 6 -83 45 -254 62 -271 7 -7
123 111 152 155 12 19 13 34 4 85 -5 35 -13 102 -17 151 -4 48 -10 87 -13 87
-4 0 -40 -20 -81 -45z"/>
<path d="M1347 303 c-25 -4 -28 -8 -23 -31 5 -23 36 -255 36 -268 0 -2 32 -4
70 -4 l70 0 0 155 0 155 -62 -1 c-35 -1 -76 -4 -91 -6z"/>
<path d="M1244 292 c-30 -3 -32 -5 -38 -60 -7 -61 -42 -147 -82 -199 l-25 -33
111 0 110 0 -5 37 c-19 142 -36 257 -38 257 -1 1 -16 0 -33 -2z"/>
<path d="M617 129 c-15 -9 -87 -111 -87 -125 0 -3 10 -4 23 -2 16 2 32 21 55
66 19 35 32 65 30 67 -2 2 -11 -1 -21 -6z"/>
</g>
</svg>
